<?xml version="1.0" standalone="no"?>
<!DOCTYPE svg PUBLIC "-//W3C//DTD SVG 20010904//EN"
 "http://www.w3.org/TR/2001/REC-SVG-20010904/DTD/svg10.dtd">
<svg version="1.0" xmlns="http://www.w3.org/2000/svg"
 width="260.000000pt" height="260.000000pt" viewBox="0 0 260.000000 260.000000"
 preserveAspectRatio="xMidYMid meet">
<metadata>
Created by potrace 1.11, written by Peter Selinger 2001-2013
</metadata>
<g transform="translate(0.000000,260.000000) scale(0.100000,-0.100000)"
fill="#000000" stroke="none">
<path d="M1496 1972 c-7 -15 -141 -290 -296 -612 -155 -322 -288 -597 -296
-611 -13 -26 -12 -26 67 -69 45 -23 84 -38 89 -34 8 9 610 1252 613 1267 1 4
-35 25 -81 47 l-82 39 -14 -27z"/>
<path d="M427 1622 l-337 -187 3 -63 2 -63 340 -179 339 -179 44 74 c24 41 41
78 38 83 -13 21 -387 217 -461 242 l-80 27 70 23 c39 12 161 74 272 137 l202
115 -46 76 c-24 43 -46 78 -47 79 0 1 -153 -82 -339 -185z"/>
<path d="M1755 1737 c-22 -39 -41 -75 -43 -78 -6 -14 394 -226 466 -248 39
-12 72 -23 72 -25 0 -2 -34 -16 -77 -31 -42 -16 -158 -75 -257 -132 -100 -56
-185 -105 -191 -107 -9 -3 36 -98 70 -148 10 -15 47 2 351 171 l339 189 3 58
3 59 -342 180 c-187 99 -344 181 -347 182 -4 2 -25 -30 -47 -70z"/>
</g>
</svg>
